<?xml version="1.0" standalone="no"?>
<!DOCTYPE svg PUBLIC "-//W3C//DTD SVG 20010904//EN"
 "http://www.w3.org/TR/2001/REC-SVG-20010904/DTD/svg10.dtd">
<svg version="1.0" 
    xmlns="http://www.w3.org/2000/svg" viewBox="0 0 600 600" preserveAspectRatio="xMidYMid meet">

    <g transform="translate(0,600) scale(0.1,-0.1)" fill="#263238" stroke="none">
        <path d="M0 3000 l0 -3000 3000 0 3000 0 0 3000 0 3000 -3000 0 -3000 0 0
-3000z m1980 1989 c268 -47 511 -161 731 -346 88 -74 173 -170 266 -300 82
-117 91 -119 167 -25 163 200 315 323 535 432 176 88 354 134 580 151 403 30
840 -136 1147 -437 350 -343 513 -867 420 -1348 -26 -137 -80 -296 -141 -417
-51 -99 -158 -249 -243 -340 -262 -278 -591 -436 -989 -474 -137 -13 -166 -13
-266 1 -384 52 -660 185 -912 438 -70 70 -147 161 -185 216 -90 131 -92 131
-206 -6 -221 -266 -531 -451 -869 -518 -220 -43 -393 -41 -614 6 -313 67 -627
252 -825 488 -448 535 -492 1263 -110 1835 217 324 564 557 947 636 209 43
355 45 567 8z m174 -4128 c10 -11 30 -21 44 -23 14 -2 27 -8 29 -13 2 -7 -45
-10 -137 -10 -105 0 -140 3 -140 13 0 6 11 12 25 12 33 0 62 31 70 74 12 61 1
589 -12 612 -7 12 -31 29 -53 38 -50 20 -51 36 -2 37 20 0 62 6 92 12 l55 12
6 -372 c5 -338 7 -375 23 -392z m-964 729 c24 -24 25 -38 4 -68 -19 -28 -57
-29 -84 -2 -24 24 -25 47 -3 72 21 24 58 23 83 -2z m320 -150 l0 -169 46 24
c54 29 134 33 187 11 43 -18 111 -94 127 -141 18 -54 8 -170 -18 -221 -32 -63
-104 -122 -159 -130 -66 -10 -137 2 -186 30 -44 26 -67 22 -67 -11 0 -17 -20
-17 -20 0 0 6 0 173 0 370 l0 358 -30 17 c-16 9 -30 20 -30 25 0 4 34 7 75 7
l75 0 0 -170z m-689 133 c68 -31 94 -73 94 -153 0 -83 -23 -117 -104 -158
l-59 -29 36 -11 c167 -50 221 -205 113 -325 -67 -75 -94 -81 -356 -80 -126 1
-231 5 -232 10 -2 5 17 14 41 21 64 17 67 31 69 364 2 317 -1 335 -60 352 -59
16 -35 25 80 29 233 8 328 3 378 -20z m2669 -4 l44 -20 17 22 c24 32 35 17 43
-58 4 -37 9 -83 12 -100 9 -48 -18 -43 -41 8 -35 77 -137 149 -213 149 -71 0
-132 -62 -132 -135 0 -72 34 -99 198 -156 119 -42 168 -72 202 -126 38 -60 44
-93 29 -155 -15 -67 -103 -160 -164 -177 -71 -19 -160 -14 -232 15 -63 25 -67
26 -79 9 -7 -10 -15 -23 -17 -29 -3 -7 -8 -8 -15 -1 -16 15 -28 255 -14 255 7
0 25 -27 42 -60 61 -120 127 -170 227 -170 99 0 163 59 163 150 0 88 -50 132
-212 189 -109 38 -136 52 -169 88 -90 96 -73 213 40 289 71 47 182 52 271 13z
m2130 -164 l0 -85 80 0 c72 0 80 -2 80 -19 0 -21 -35 -31 -110 -31 l-48 0 -7
-124 c-8 -134 -1 -219 21 -253 19 -30 64 -37 109 -19 46 19 45 19 45 1 0 -8
-20 -26 -43 -40 -56 -32 -132 -35 -170 -4 -42 32 -49 77 -45 267 l3 172 -47 0
c-26 0 -49 4 -52 9 -3 5 14 21 38 35 66 39 102 79 115 130 18 72 31 55 31 -39z
m-4405 -310 c3 -148 9 -232 16 -241 6 -8 25 -14 41 -14 19 0 28 -4 26 -12 -3
-7 -10 -13 -16 -12 -7 1 -61 2 -122 3 -67 0 -110 5 -110 11 0 6 14 13 30 17
17 3 35 14 40 24 6 10 10 98 10 196 0 196 -7 223 -56 223 -16 0 -24 5 -22 13
3 7 32 14 79 17 41 3 75 5 77 4 1 0 4 -103 7 -229z m1429 192 c17 -11 37 -28
44 -37 23 -26 52 -94 52 -121 0 -25 -2 -26 -77 -33 -42 -3 -118 -6 -170 -6
l-93 0 0 -50 c0 -65 18 -108 63 -147 62 -55 149 -54 215 2 51 43 73 25 27 -21
-40 -40 -103 -64 -170 -64 -99 0 -177 49 -216 135 -26 56 -25 166 2 225 63
139 214 194 323 117z m1394 28 c66 -20 112 -58 112 -93 -1 -69 -53 -70 -87 -2
-29 57 -57 80 -98 80 -44 0 -89 -39 -111 -95 -23 -62 -16 -204 14 -261 44 -86
119 -117 192 -79 34 18 70 61 70 86 0 18 17 35 27 26 11 -11 -10 -69 -35 -99
-35 -41 -96 -68 -157 -68 -173 0 -289 206 -206 367 41 81 93 126 166 144 46
11 57 10 113 -6z m572 -20 c46 -24 72 -48 106 -100 26 -41 27 -185 1 -232 -66
-122 -188 -177 -309 -141 -57 17 -133 88 -155 146 -70 183 77 378 267 355 25
-3 65 -16 90 -28z m360 -139 c0 -192 6 -239 36 -271 45 -49 136 -20 175 57 17
33 20 61 22 177 2 145 -5 171 -44 171 -11 0 -19 5 -19 10 0 6 32 10 75 10 l75
0 1 -67 c0 -38 0 -127 -1 -199 -2 -153 4 -182 36 -194 48 -19 26 -31 -48 -28
l-73 3 -3 43 -3 43 -44 -39 c-66 -58 -135 -75 -200 -48 -58 25 -67 56 -74 271
-6 187 -6 190 -28 193 -51 7 -19 22 47 22 l70 0 0 -154z"/>
        <path d="M4410 4415 c-247 -74 -362 -107 -435 -125 -38 -10 -126 -34 -195 -55
-69 -21 -136 -39 -150 -41 -14 -2 -91 -24 -172 -49 -80 -25 -152 -45 -160 -45
-7 0 -52 -12 -100 -26 -70 -22 -88 -31 -88 -46 0 -15 -5 -17 -27 -12 -16 4
-29 8 -31 9 -2 2 -16 -1 -32 -5 -22 -6 -28 -5 -24 5 3 7 -3 16 -13 19 -132 38
-1516 396 -1519 393 -8 -7 42 -1996 49 -2004 4 -3 327 95 717 218 670 211 711
225 706 245 -8 30 1 34 35 17 29 -14 61 -13 103 3 16 6 17 4 7 -13 -10 -20 -6
-22 62 -38 39 -10 88 -24 107 -32 19 -8 98 -32 176 -53 77 -20 149 -42 160
-48 11 -6 58 -20 104 -32 93 -24 174 -47 205 -60 31 -13 112 -36 205 -60 46
-12 93 -26 104 -32 11 -6 83 -27 160 -48 78 -21 153 -43 169 -50 15 -7 30 -11
33 -8 3 3 7 273 10 599 2 327 6 749 9 939 4 362 0 480 -19 479 -6 0 -76 -20
-156 -44z m-1850 -668 l0 -43 35 4 c37 4 40 0 48 -80 3 -35 1 -38 -23 -37 -14
0 -19 3 -12 6 13 5 16 43 6 81 -5 16 -13 22 -28 20 -18 -3 -21 -10 -21 -56 0
-47 -2 -52 -22 -52 -20 0 -21 3 -11 37 10 38 7 113 -7 146 -5 13 -2 17 14 17
18 0 21 -6 21 -43z m-408 21 c-17 -17 -16 -165 1 -171 6 -3 -6 -6 -27 -6 -31
-1 -37 2 -28 11 7 7 12 41 12 83 0 42 -5 76 -12 83 -9 9 -3 12 27 12 30 0 36
-3 27 -12z m1728 -41 l0 -43 35 4 c37 4 40 0 48 -80 3 -34 1 -38 -21 -38 -20
0 -22 2 -12 15 8 9 9 28 5 55 -6 35 -10 41 -28 38 -19 -3 -22 -9 -22 -56 0
-45 -3 -52 -20 -52 -19 0 -20 6 -17 86 2 56 -1 90 -8 100 -10 12 -8 14 14 14
24 0 26 -3 26 -43z m-1410 3 c0 -12 7 -20 18 -21 15 -1 15 -2 1 -6 -19 -5 -33
-61 -23 -87 4 -12 13 -15 28 -10 16 5 18 3 10 -6 -7 -6 -22 -10 -35 -8 -21 3
-24 9 -27 56 -2 28 -8 52 -13 52 -11 0 22 49 34 50 4 0 7 -9 7 -20z m1320 -20
c0 -12 7 -20 18 -21 13 0 14 -2 2 -6 -21 -8 -30 -24 -30 -53 0 -32 17 -50 39
-43 12 5 13 3 5 -6 -7 -7 -22 -11 -35 -9 -21 3 -24 9 -27 56 -2 28 -8 52 -13
52 -11 0 22 49 34 50 4 0 7 -9 7 -20z m-1560 -11 c0 -8 4 -8 14 1 8 6 25 10
38 8 20 -3 23 -10 26 -53 2 -27 9 -53 15 -57 7 -4 -4 -7 -23 -7 -19 0 -29 3
-22 6 12 5 17 60 6 87 -17 44 -59 -4 -52 -60 4 -31 2 -34 -21 -34 -19 0 -22 3
-13 12 7 7 12 28 12 48 0 20 -5 41 -12 48 -9 9 -7 12 10 12 12 0 22 -5 22 -11z
m538 -1 c22 -22 13 -37 -25 -40 -30 -2 -38 -7 -38 -22 0 -28 30 -44 55 -28 11
7 20 8 20 3 0 -5 -7 -12 -16 -15 -68 -26 -119 34 -78 92 17 24 62 30 82 10z
m850 -4 c14 -4 22 -14 22 -28 -1 -20 -2 -20 -14 -3 -14 18 -46 24 -46 7 0 -5
14 -16 30 -25 56 -29 31 -90 -33 -78 -21 4 -27 11 -26 32 l0 26 16 -22 c16
-24 53 -31 53 -10 0 6 -14 20 -30 29 -31 18 -39 45 -18 66 14 14 15 14 46 6z
m460 -10 c12 -8 22 -24 22 -35 0 -16 -7 -19 -40 -19 -43 0 -53 -17 -25 -40 12
-10 21 -10 40 -2 30 14 34 -2 5 -18 -67 -36 -124 61 -64 109 32 25 33 25 62 5z
m-816 -3 c-10 -6 -11 -13 -1 -34 15 -34 25 -34 33 0 5 17 3 29 -6 34 -8 6 -1
9 20 9 21 0 31 -4 27 -11 -4 -5 -1 -24 6 -41 l13 -31 11 34 c9 25 9 36 1 41
-6 4 3 7 19 7 17 0 25 -3 18 -5 -6 -3 -19 -27 -28 -55 -9 -27 -21 -51 -26 -55
-5 -3 -17 12 -25 33 l-16 38 -15 -38 c-8 -20 -18 -37 -22 -37 -3 0 -18 27 -33
60 l-26 60 31 0 c21 0 27 -3 19 -9z m252 -7 c3 -9 6 -33 6 -54 0 -21 6 -41 13
-43 6 -3 -15 -5 -48 -4 -74 2 -87 25 -31 58 36 21 48 49 21 49 -7 0 -18 -8
-24 -17 -11 -21 -26 -11 -18 12 9 21 73 20 81 -1z m-1836 -257 c3 -32 6 -37
29 -37 55 0 79 -52 47 -98 -13 -19 -24 -22 -60 -21 l-44 3 0 82 c0 45 -3 90
-6 99 -5 13 -2 16 12 13 14 -2 20 -13 22 -41z m430 22 c-2 -6 -8 -10 -13 -10
-5 0 -11 4 -13 10 -2 6 4 11 13 11 9 0 15 -5 13 -11z m390 0 c-2 -6 -8 -10
-13 -10 -5 0 -11 4 -13 10 -2 6 4 11 13 11 9 0 15 -5 13 -11z m1394 -98 l3
-99 -45 0 c-27 0 -52 6 -62 15 -38 34 -9 103 44 103 29 0 30 1 26 40 -3 33 0
40 14 40 14 0 17 -14 20 -99z m-609 82 c-19 -7 -16 -35 8 -90 l21 -48 19 49
c18 44 18 51 4 72 -15 24 -15 24 26 24 37 0 40 -2 28 -16 -10 -13 -9 -25 6
-70 10 -30 22 -51 25 -47 4 4 15 30 24 57 12 37 13 53 5 63 -9 10 -5 13 20 13
l32 0 -20 -27 c-10 -16 -29 -58 -42 -95 -13 -38 -27 -68 -30 -68 -4 0 -17 27
-29 60 -12 33 -24 60 -25 60 -2 0 -13 -30 -25 -66 -12 -36 -24 -64 -26 -62 -2
2 -17 37 -35 78 -17 41 -40 85 -52 98 l-20 22 49 -1 c27 0 43 -3 37 -6z
m-1255 -41 c11 11 32 3 32 -13 0 -6 -9 -8 -19 -4 -16 5 -20 0 -23 -27 -2 -27
-8 -35 -35 -43 -44 -12 -41 -21 8 -28 59 -8 73 -33 39 -67 -24 -24 -91 -27
-110 -5 -10 13 -10 19 3 33 13 14 14 21 5 30 -9 9 -9 15 0 24 8 8 8 17 1 30
-22 41 21 85 67 67 13 -4 26 -3 32 3z m95 -114 c7 -4 -3 -7 -23 -7 -19 0 -29
3 -22 6 7 3 12 24 12 54 0 32 -4 49 -12 50 -7 0 -4 4 7 8 18 7 20 4 23 -48 2
-30 9 -59 15 -63z m390 0 c7 -4 -3 -7 -23 -7 -19 0 -29 3 -22 6 7 3 12 24 12
54 0 32 -4 49 -12 50 -7 0 -4 4 7 8 18 7 20 4 23 -48 2 -30 9 -59 15 -63z
m325 102 c3 -9 -2 -11 -16 -8 -18 5 -21 1 -24 -26 -2 -25 -9 -33 -35 -41 -43
-12 -42 -25 1 -25 33 0 66 -21 66 -41 0 -35 -76 -61 -124 -43 -21 8 -21 43 0
51 13 5 13 7 2 14 -10 7 -11 12 -1 28 8 13 9 22 3 26 -17 11 -11 53 10 68 26
18 112 16 118 -3z m-950 -17 c14 -23 14 -23 -26 -23 -47 0 -58 -11 -42 -41 10
-17 18 -20 43 -15 23 5 28 3 20 -5 -19 -19 -76 -7 -89 20 -13 26 -3 69 19 83
21 14 59 4 75 -19z m382 -35 c5 -55 4 -58 -17 -58 -20 0 -22 3 -12 18 15 24 3
92 -15 92 -29 0 -51 -67 -32 -98 5 -8 -2 -12 -26 -12 -22 0 -29 3 -19 9 9 6
12 24 10 59 l-4 51 55 -2 55 -2 5 -57z m70 50 c0 -9 3 -9 12 0 16 16 55 15 65
0 4 -7 10 -34 13 -60 6 -44 5 -48 -14 -48 -19 0 -21 5 -18 50 3 40 1 51 -13
57 -12 4 -23 0 -31 -12 -17 -24 -18 -82 -1 -88 6 -3 -4 -6 -23 -6 -23 0 -30 2
-21 8 9 6 12 24 10 60 -3 36 0 51 9 51 6 0 12 -5 12 -12z m308 -1 c6 -7 11
-33 13 -59 4 -43 2 -48 -16 -48 -18 0 -20 5 -17 50 3 40 0 51 -13 56 -20 8
-32 -8 -41 -55 -5 -23 -2 -36 7 -42 10 -6 3 -9 -21 -9 -23 0 -30 3 -21 9 9 6
12 24 10 58 l-4 50 47 1 c25 0 51 -5 56 -11z m966 -18 c41 -32 30 -90 -20
-109 -43 -17 -84 13 -84 62 0 27 39 68 65 68 7 0 24 -9 39 -21z m143 -6 c3 -8
-6 -11 -24 -10 -27 2 -28 0 -28 -46 0 -46 -1 -47 -30 -46 -16 0 -24 3 -17 6 7
3 12 24 12 53 0 29 -5 50 -12 53 -7 3 11 5 41 4 32 -1 56 -7 58 -14z m201 -91
c2 -7 -3 -12 -12 -12 -9 0 -16 7 -16 16 0 17 22 14 28 -4z m62 3 c0 -8 -7 -15
-15 -15 -16 0 -20 12 -8 23 11 12 23 8 23 -8z m68 -3 c2 -7 -3 -12 -12 -12 -9
0 -16 7 -16 16 0 17 22 14 28 -4z"/>
        <path d="M2707 3693 c-14 -13 -6 -23 18 -23 16 0 25 6 25 15 0 15 -31 21 -43
8z"/>
        <path d="M4026 3665 c-4 -11 1 -15 19 -15 16 0 25 6 25 15 0 8 -9 15 -19 15
-10 0 -21 -7 -25 -15z"/>
        <path d="M3462 3618 c-18 -18 -15 -40 6 -36 9 2 18 13 20 26 4 24 -7 29 -26
10z"/>
        <path d="M1684 3356 c-3 -8 -4 -29 -2 -48 2 -25 8 -34 25 -36 26 -4 39 31 29
73 -7 28 -43 35 -52 11z"/>
        <path d="M3806 3335 c-19 -49 8 -100 40 -75 24 20 15 84 -12 88 -13 2 -24 -4
-28 -13z"/>
        <path d="M1957 3364 c-11 -11 -8 -52 3 -59 17 -10 41 16 38 39 -3 21 -28 33
-41 20z"/>
        <path d="M1942 3228 c-16 -16 3 -38 34 -38 25 0 57 27 49 41 -9 13 -69 11 -83
-3z"/>
        <path d="M2737 3363 c-12 -12 -7 -51 7 -56 19 -8 26 1 26 35 0 26 -17 37 -33
21z"/>
        <path d="M2722 3228 c-8 -8 -9 -15 -1 -25 22 -25 79 -12 79 18 0 15 -7 19 -33
19 -18 0 -38 -5 -45 -12z"/>
        <path d="M1820 3356 c0 -11 9 -16 26 -16 31 0 28 23 -4 28 -15 2 -22 -2 -22
-12z"/>
        <path d="M3552 3338 c-16 -16 -15 -50 2 -74 30 -39 71 19 46 65 -12 24 -30 27
-48 9z"/>
        <path d="M1581 1277 c-40 -20 -60 -58 -71 -132 -30 -214 7 -305 123 -305 45 0
54 4 87 39 90 95 76 331 -23 391 -37 23 -81 25 -116 7z"/>
        <path d="M563 1560 c-22 -9 -23 -13 -23 -166 l0 -157 69 5 c79 6 151 36 176
75 27 40 30 131 7 173 -34 64 -153 100 -229 70z"/>
        <path d="M540 1191 c-5 -11 -10 -85 -10 -169 0 -125 3 -152 16 -163 10 -8 45
-13 100 -13 69 0 89 4 111 20 89 66 109 202 41 280 -36 40 -105 64 -189 64
-47 0 -60 -4 -69 -19z"/>
        <path d="M2494 1291 c-46 -20 -112 -136 -90 -159 4 -4 52 -7 105 -7 114 0 131
8 131 66 0 72 -81 127 -146 100z"/>
        <path d="M4455 1293 c-73 -19 -119 -107 -119 -228 1 -67 5 -89 28 -133 63
-124 191 -123 255 2 21 41 26 64 26 126 0 64 -5 84 -30 135 -40 80 -96 114
-160 98z"/>
    </g>
</svg>
