<!DOCTYPE svg PUBLIC "-//W3C//DTD SVG 20010904//EN"
 "http://www.w3.org/TR/2001/REC-SVG-20010904/DTD/svg10.dtd">
<svg version="1.0" xmlns="http://www.w3.org/2000/svg" viewBox="0 0 1024 1024" reserveAspectRatio="xMidYMid meet" fill="#263238" stroke="none">
  <path d="M0 512v512h1024V0H0v512zm500-401a5857 5857 0 00496 388c2 3 1 4-13 11l-15 7-5 8c-17 24-29 51-34 72-1 6-2 21-1 26 1 2 2 3 4 3 3 0 10 3 12 6 3 3 4 7 1 10-5 4-57 34-102 58-38 20-138 70-217 108l-89 43-20 10 18 35 17 35-5-3c-6-3-17-11-20-15l-3-3-5 13-6 15-4-9a411 411 0 00-24-53l-32 16c-34 17-38 18-47 16-5-1-11-6-16-13L53 310c-18-41-25-65-22-78 3-15 14-25 39-36 14-7 64-24 101-35 116-36 207-52 309-57l9-1c2 0 5 2 11 8z"/>
  <path d="M343 171c-4 1-52 31-54 33-3 4-5 10-4 15 0 5 30 53 34 57s10 5 15 4l30-16c29-18 30-19 30-29 0-7 0-7-14-32l-17-27c-5-5-15-7-20-5zm11 8a4073 4073 0 0033 56l-3 6a383 383 0 01-54 31l-6-2-17-27c-16-27-17-29-11-34l48-30h10zM510 190c-1 1-5 12-9 30l-7 29-13-2c-15-4-15-4-18 5-2 9-1 11 5 12 10 4 38 9 39 9 3-1 3-2 12-42 11-42 11-39-1-42-7-1-6-1-8 1z"/>
  <path d="M491 196l-52 32-4 7c-3 8-2 10 15 38 19 31 21 32 31 32 5 0 6 0 18-7 44-28 43-27 45-34 2-6 1-11-7-22-3-6-7-11-8-11l-2 4c-1 3 0 4 5 12 5 10 6 11 4 16a340 340 0 01-52 34c-7 2-10-1-16-11-27-43-28-45-24-51l13-9 37-22c2-1 4-6 4-8h-7zM412 252a1509 1509 0 01-15 59l-12-3-14-2c-3 1-5 4-6 11 0 8-2 8 36 16 6 2 8 2 10 1l10-39 9-39c-1-3-4-4-12-6-4 0-5 0-6 2z"/>
  <path d="M394 257l-19 11c-36 23-36 23-38 31-1 6 0 10 8 23l15 25c9 14 11 16 17 19 7 2 11 1 26-8l24-15c15-9 18-11 19-16 2-7 1-13-5-23l-7-11c-2-2-4 0-4 4-1 3 0 4 4 12 5 8 6 12 4 17-2 3-49 32-54 33-6 1-8-1-23-27-9-13-15-25-16-27-1-4 0-6 3-9 2-3 39-26 49-31 3-2 3-3 3-5-1-4-1-4-6-3zM314 311c-2 1-2 0-10 34l-7 26-12-2-14-3c-3 2-7 17-4 19a197 197 0 0044 9 880 880 0 0020-76c0-4-1-5-13-8l-4 1z"/>
  <path d="M295 318l-45 28c-7 4-10 7-11 12-2 5-1 11 1 15a5457 5457 0 0032 50c4 4 12 5 16 4l12-6a9218 9218 0 0046-31c2-3 3-12 2-15l-7-11c-7-12-9-13-10-7-1 3-1 4 4 12 6 10 7 14 2 19l-26 17c-25 15-27 16-33 12a3924 3924 0 00-26-39c-10-17-9-19 8-29a2327 2327 0 0041-29c0-3-1-4-6-2zM464 336l-8 30-7 29-11-2c-13-3-16-3-18 0-2 5-3 13-2 15 1 3 41 12 45 11 2-1 2 0 12-43 9-39 9-38 0-40h-11z"/>
  <path d="M445 343l-51 32c-5 5-6 13-4 19l32 52c3 2 5 4 9 5 8 2 8 2 52-25 14-9 17-12 17-20 0-6-1-7-6-16-3-5-7-10-7-12-2-2-2-2-3 0-3 4-2 7 3 16 4 7 5 9 5 12-1 4-3 7-7 10a3040 3040 0 00-48 28c-6 1-9-3-25-29-14-23-15-25-15-28 1-5 3-7 10-11a2100 2100 0 0046-30c1-6-1-6-8-3zM497 428l-27 17c-17 9-24 14-26 17-2 4-4 11-2 15 2 6 30 52 34 55 4 4 10 6 15 4l30-16c29-18 31-19 31-29 0-6-1-7-9-20-26-44-24-40-29-43-6-3-12-2-17 0zm14 7c3 2 32 49 33 54 1 6-2 9-28 24-21 13-25 15-29 15l-6-2c-3-3-32-51-32-53 0-4 2-8 5-10l47-28h10zM930 534a23396 23396 0 00-343 166c-33 17-84 44-108 59-48 29-73 53-81 77-2 7-1 19 1 26 3 8 9 18 14 22 7 7 11 6 41-9l24-12c0-2-9-15-13-20-5-6-12-11-18-12-10-1-10-1 10-11 21-11 18-11 31 2 7 6 18 20 21 25a76662 76662 0 00420-206l-2-5c-7-13-8-31-1-52a282 282 0 0130-62l-26 12z"/>
</svg>
