<svg xmlns="http://www.w3.org/2000/svg" viewBox="0 0 1024 1024" preserveAspectRatio="xMidYMid meet">
  <path d="M476 104A1262 1262 0 0048 207c-19 13-23 30-12 62l20 47 335 581 9 9c5 2 6 3 12 3h7l33-16 33-16a311 311 0 0128 61l6-14 5-13 6 6c7 5 21 15 22 14l-8-16-26-55 98-47c165-79 244-120 314-162 18-10 19-11 16-17-2-4-7-7-13-8-4-1-5-2-5-14 0-20 8-43 26-74 13-21 13-21 29-28l15-8c0-2-5-6-39-31a6110 6110 0 01-454-357l-12-11h-6l-11 1zm-122 67l6 3c4 3 34 54 35 57 0 5-1 11-4 15l-31 20-13 8c-9 5-10 5-17 5-6 0-7 0-10-3l-7-7-12-21c-16-26-16-26-16-32s2-11 7-14c5-4 50-31 52-31h10zm166 19c6 2 7 3 7 6a482 482 0 01-14 62c-3 11-4 14-6 14-1 1-37-7-42-9-2-1-3-3-2-8 1-6 3-10 4-10 1-1 7 1 14 2l13 2a501 501 0 0015-59h11zm-23 6c1 2 0 6-2 7l-10 6c-45 27-44 26-43 33 1 3 2 7 6 12l13 23c12 18 14 20 19 20 4 0 7-1 19-8l24-15 12-9c3-4 3-9-3-18-5-8-5-9-4-12l1-4c2 0 14 20 15 25s-1 11-4 15l-17 12-25 15c-9 6-11 6-17 7-9 0-12-2-21-17l-15-24c-10-15-11-20-11-26 1-7 5-10 32-26 29-18 30-19 31-16zm-73 56l5 3a407 407 0 01-18 78l-4 1c-4 0-40-9-41-11v-7c2-11 2-11 17-8l12 3c2 0 2 0 6-16l11-44c1-1 5-1 12 1zm-24 9a1155 1155 0 00-49 32c-3 2-5 4-6 7-1 4-1 4 1 9l10 15 12 21c8 12 10 14 16 14l16-8 14-9c10-5 23-14 24-17 3-4 2-7-4-17-5-8-5-11-3-14 1-2 3-1 4 2l7 11c5 8 5 9 5 14-1 9-4 12-18 21-43 26-40 24-46 25-8 0-12-3-18-14-23-35-27-44-28-47-1-9 2-15 11-20 16-10 47-29 49-29 2-1 3 0 3 4zm-74 52l4 3c1 1-1 9-3 19l-9 36-6 22c-2 2-2 2-20-2-25-6-25-6-26-8 0-2 1-11 3-14 1-3 5-3 18 0l10 3 9-33 7-27c1-1 6-1 13 1zm-26 5c2 3 0 6-9 11-46 28-46 28-45 34 0 4 1 7 6 15l16 25c12 20 14 20 29 11l15-9c21-13 26-16 27-19 3-5 2-7-3-16s-6-14-4-16c1-1 3 1 8 10 8 11 9 14 7 21 0 6-5 11-23 21l-24 15c-9 5-11 6-15 6-8 0-14-3-18-11l-5-8c-22-36-24-39-24-45 0-9 2-11 28-27l33-19 2 1zm178 19l4 3c1 4-17 77-19 78-2 2-42-7-44-10-2-1-2-2 0-8l3-8c1-1 5-1 14 1l13 2a1204 1204 0 0016-59c1-1 6-1 13 1zm-26 8c0 3-2 5-3 5l-14 8-24 15c-17 10-18 13-7 30l14 23c13 22 15 22 35 10l24-15 13-9c3-4 3-9-2-16-6-10-6-11-5-15 0-2 1-3 2-3 2 1 13 18 14 23 2 8-1 15-10 21l-6 4-4 2-33 20c-5 3-10 4-16 2l-7-3-33-54v-9l3-7a517 517 0 0157-35c3 0 3 0 2 3zm58 82l7 3c4 3 34 54 35 58 0 4-2 11-5 15l-51 31c-7 4-17 2-22-3l-30-51c-4-7-2-16 3-21l53-32h10zm444 97l-6 11c-18 29-27 56-27 77 0 10 1 16 5 23l3 6-28 14a90832 90832 0 00-351 173l-40 20-3-5c-9-13-28-32-32-32l-37 19 7 1c7 2 13 5 18 11 5 5 15 20 15 21l-52 25c-8 1-14-3-21-14-8-12-10-25-7-37 3-10 9-20 21-32 21-22 41-36 105-72a10240 10240 0 01430-209z"/>
  <path d="M320 193c-27 16-29 18-28 24l15 27c17 29 20 32 28 28l50-31c3-5 3-9-2-17l-15-25c-6-9-11-18-13-19-5-4-8-3-35 13zM478 449l-26 16-3 6c0 4 1 5 14 28l17 27c3 3 8 3 12 2l42-25c8-5 10-8 10-13 0-3 1-2-16-29-7-13-14-24-16-25-5-4-8-3-34 13z"/>
</svg>