<svg id="svg" version="1.1" xmlns="http://www.w3.org/2000/svg" xmlns:xlink="http://www.w3.org/1999/xlink" width="400" height="400" viewBox="0, 0, 400,400"><g id="svgg">
<path id="path0" d="M188.672 40.496 C 143.425 42.471,100.418 51.174,46.680 69.228 C 8.468 82.066,6.032 86.230,18.960 116.612 C 21.467 122.505,145.665 339.461,151.670 348.438 C 157.466 357.101,159.702 357.067,177.750 348.039 C 188.546 342.639,189.411 342.274,189.967 342.891 C 191.183 344.238,197.855 359.466,199.490 364.624 C 199.920 365.981,200.598 366.331,200.890 365.348 C 201.201 364.299,204.359 356.077,204.513 355.912 C 204.586 355.834,205.667 356.650,206.913 357.726 C 209.264 359.754,214.785 363.470,215.052 363.203 C 215.136 363.120,214.112 360.862,212.778 358.186 C 209.102 350.815,202.333 336.565,202.339 336.209 C 202.344 335.881,206.428 333.877,237.109 319.147 C 303.895 287.083,333.562 271.866,361.845 255.169 C 365.673 252.908,369.078 250.644,369.410 250.136 C 370.654 248.239,368.145 245.324,364.736 244.707 C 362.663 244.332,362.338 243.499,362.380 238.672 C 362.454 230.071,366.948 218.848,375.814 205.124 L 377.930 201.849 383.593 199.243 C 387.077 197.640,389.302 196.393,389.378 196.003 C 389.511 195.311,386.853 193.248,366.602 178.320 C 289.245 121.298,228.472 73.604,200.652 48.087 C 194.458 42.405,191.836 40.189,191.451 40.310 C 191.319 40.351,190.068 40.435,188.672 40.496 M139.173 66.944 C 141.160 67.794,142.167 69.158,147.838 78.677 C 154.481 89.826,154.299 89.464,154.288 91.485 C 154.267 95.641,153.776 96.114,142.383 102.940 C 126.079 112.707,126.846 112.901,117.045 96.523 C 108.238 81.806,108.174 82.086,122.273 73.546 C 135.098 65.778,135.803 65.502,139.173 66.944 M125.508 75.362 C 111.864 83.534,112.271 82.157,119.763 94.771 C 128.089 108.789,126.888 108.466,140.430 100.334 C 153.566 92.444,153.203 93.999,145.083 80.418 C 137.108 67.078,138.668 67.481,125.508 75.362 M202.148 73.851 C 206.903 75.094,206.853 73.975,202.898 90.666 C 199.357 105.607,199.006 106.641,197.472 106.641 C 196.528 106.641,182.829 103.450,181.558 102.934 C 180.166 102.369,180.454 97.944,182.007 96.026 L 182.714 95.154 187.650 96.271 C 190.364 96.886,192.700 97.274,192.839 97.135 C 192.978 96.996,194.271 91.955,195.711 85.934 C 198.800 73.018,198.820 72.980,202.148 73.851 M194.459 77.234 C 194.640 78.504,193.747 79.172,183.789 85.221 C 169.972 93.613,170.440 91.705,178.820 105.469 C 186.719 118.444,185.701 118.180,198.242 110.501 C 211.055 102.656,211.212 102.427,207.706 96.802 C 205.739 93.646,205.321 91.558,206.465 90.609 C 207.249 89.958,207.457 90.187,210.394 94.922 C 214.618 101.732,213.769 104.658,206.213 109.340 C 184.335 122.897,185.723 123.012,175.876 106.836 C 168.993 95.529,169.415 96.410,169.608 93.734 C 169.865 90.182,170.551 89.563,182.111 82.458 C 192.745 75.922,194.186 75.313,194.459 77.234 M165.550 98.256 C 168.517 99.137,168.525 98.947,164.862 114.393 C 163.096 121.838,161.557 128.335,161.442 128.831 C 160.890 131.203,158.273 130.969,144.413 127.305 C 142.481 126.794,142.148 125.857,142.842 122.884 C 143.739 119.037,143.991 118.958,150.454 120.487 C 152.675 121.012,154.613 121.320,154.761 121.170 C 154.985 120.943,160.156 99.801,160.156 99.111 C 160.156 97.717,162.490 97.347,165.550 98.256 M156.175 101.471 C 156.267 102.396,156.080 102.821,155.394 103.248 C 154.898 103.557,150.401 106.313,145.402 109.374 C 135.703 115.309,134.765 116.098,134.766 118.314 C 134.766 119.775,144.486 136.305,146.791 138.765 C 149.095 141.223,149.323 141.146,161.089 133.927 C 172.822 126.728,172.930 126.556,169.484 120.585 C 167.342 116.874,167.127 114.648,168.911 114.648 C 170.296 114.648,174.784 122.725,174.749 125.155 C 174.691 129.150,174.189 129.623,162.157 137.008 C 146.913 146.365,147.409 146.493,137.728 130.726 C 128.456 115.626,128.357 115.999,144.171 106.339 C 155.616 99.346,155.951 99.211,156.175 101.471 M125.920 121.715 C 128.790 122.457,129.297 122.823,129.297 124.154 C 129.297 125.561,122.654 153.209,122.172 153.809 C 121.538 154.597,119.987 154.397,112.260 152.533 C 103.054 150.313,103.046 150.305,104.506 145.387 C 105.281 142.777,105.828 142.650,110.840 143.921 C 116.655 145.395,116.089 145.748,117.517 139.746 C 118.194 136.899,119.394 131.860,120.182 128.547 C 121.473 123.128,122.319 121.094,123.283 121.094 C 123.414 121.094,124.600 121.373,125.920 121.715 M117.578 125.186 C 117.578 126.327,117.370 126.654,116.272 127.237 C 111.050 130.007,97.122 139.009,96.645 139.922 C 95.403 142.299,95.396 142.286,105.045 157.912 C 109.983 165.909,108.750 166.111,128.017 154.154 C 133.720 150.616,134.049 149.437,130.804 144.165 C 128.712 140.765,128.422 138.295,130.078 137.985 C 131.936 137.637,136.651 147.739,135.912 150.485 C 135.148 153.324,134.235 154.084,124.091 160.321 C 108.146 170.126,108.916 170.298,99.363 154.792 C 90.327 140.126,90.375 139.325,100.656 133.023 C 117.643 122.609,117.578 122.639,117.578 125.186 M185.740 131.290 C 189.258 132.176,189.008 134.208,181.978 161.834 C 181.373 164.214,180.833 164.228,171.860 162.096 C 163.139 160.025,162.677 159.779,163.055 157.422 C 163.884 152.253,164.262 152.028,169.892 153.348 C 175.962 154.771,175.123 155.816,178.188 143.019 C 181.385 129.670,181.095 130.121,185.740 131.290 M176.764 133.603 C 177.231 134.359,176.506 136.369,175.647 136.700 C 172.637 137.861,156.388 148.436,155.746 149.652 C 154.687 151.659,154.968 152.312,161.373 162.716 C 169.471 175.873,167.844 175.512,181.445 167.176 C 193.511 159.781,193.601 159.640,190.058 153.804 C 188.214 150.767,187.873 149.145,188.808 147.867 C 189.527 146.884,189.792 147.127,192.060 150.856 C 195.225 156.057,195.418 156.539,195.231 158.790 C 194.928 162.450,194.335 162.997,183.433 169.701 C 167.458 179.525,167.995 179.626,159.064 165.117 C 151.622 153.025,151.830 153.445,152.035 150.976 C 152.337 147.323,152.928 146.777,163.808 140.087 C 175.203 133.080,176.148 132.607,176.764 133.603 M200.501 166.944 C 202.470 167.787,203.414 169.082,209.563 179.381 C 218.587 194.496,218.742 193.945,202.800 203.451 C 187.517 212.564,188.021 212.700,178.597 196.941 C 169.528 181.775,169.455 182.115,183.602 173.546 C 196.426 165.778,197.131 165.502,200.501 166.944 M186.815 175.375 C 173.072 183.605,173.451 182.165,181.504 195.527 C 189.495 208.788,188.194 208.480,201.758 200.320 C 214.879 192.426,214.496 194.041,206.456 180.515 C 198.464 167.068,200.010 167.473,186.815 175.375 M370.613 208.699 C 360.490 225.679,357.423 239.153,361.701 247.851 C 362.335 249.139,362.730 250.317,362.579 250.468 C 362.191 250.855,213.537 324.417,203.616 329.131 L 199.223 331.218 196.340 327.426 C 193.505 323.696,189.293 319.361,186.837 317.645 L 185.587 316.772 178.958 320.091 C 171.226 323.962,171.165 324.020,174.116 324.616 C 178.332 325.469,181.003 327.770,185.096 334.077 C 187.284 337.448,187.926 336.800,177.199 342.038 C 164.060 348.453,162.248 348.398,158.044 341.460 C 146.597 322.570,164.656 305.608,231.836 272.152 C 275.656 250.329,334.234 222.057,367.383 206.732 C 373.605 203.856,373.528 203.808,370.613 208.699 " stroke="none" fill="#fbfbfb" fill-rule="evenodd"></path><path id="path1" d="M0.000 200.000 L 0.000 400.000 200.000 400.000 L 400.000 400.000 400.000 200.000 L 400.000 0.000 200.000 0.000 L 0.000 0.000 0.000 200.000 M193.275 41.504 C 194.147 42.202,197.466 45.165,200.652 48.087 C 228.472 73.604,289.245 121.298,366.602 178.320 C 386.853 193.248,389.511 195.311,389.378 196.003 C 389.302 196.393,387.077 197.640,383.593 199.243 L 377.930 201.849 375.814 205.124 C 366.948 218.848,362.454 230.071,362.380 238.672 C 362.338 243.499,362.663 244.332,364.736 244.707 C 368.145 245.324,370.654 248.239,369.410 250.136 C 369.078 250.644,365.673 252.908,361.845 255.169 C 333.562 271.866,303.895 287.083,237.109 319.147 C 206.428 333.877,202.344 335.881,202.339 336.209 C 202.333 336.565,209.102 350.815,212.778 358.186 C 214.112 360.862,215.136 363.120,215.052 363.203 C 214.785 363.470,209.264 359.754,206.913 357.726 C 205.667 356.650,204.586 355.834,204.513 355.912 C 204.359 356.077,201.201 364.299,200.890 365.348 C 200.598 366.331,199.920 365.981,199.490 364.624 C 197.855 359.466,191.183 344.238,189.967 342.891 C 189.411 342.274,188.546 342.639,177.750 348.039 C 159.702 357.067,157.466 357.101,151.670 348.438 C 145.665 339.461,21.467 122.505,18.960 116.612 C 6.032 86.230,8.468 82.066,46.680 69.228 C 100.418 51.174,143.425 42.471,188.672 40.496 C 190.068 40.435,191.319 40.351,191.451 40.310 C 191.583 40.268,192.404 40.806,193.275 41.504 M133.008 67.199 C 132.148 67.634,127.318 70.490,122.273 73.546 C 108.174 82.086,108.238 81.806,117.045 96.523 C 126.846 112.901,126.079 112.707,142.383 102.940 C 153.776 96.114,154.267 95.641,154.288 91.485 C 154.299 89.464,154.481 89.826,147.838 78.677 C 140.328 66.072,138.311 64.511,133.008 67.199 M138.900 70.734 C 139.968 71.737,150.176 88.702,150.806 90.520 C 151.745 93.231,150.857 94.071,140.430 100.334 C 126.888 108.466,128.089 108.789,119.763 94.771 C 112.271 82.157,111.864 83.534,125.508 75.362 C 136.221 68.947,136.789 68.750,138.900 70.734 M199.030 74.212 C 198.582 74.706,197.384 78.936,195.711 85.934 C 194.271 91.955,192.978 96.996,192.839 97.135 C 192.700 97.274,190.364 96.886,187.650 96.271 L 182.714 95.154 182.007 96.026 C 180.454 97.944,180.166 102.369,181.558 102.934 C 182.829 103.450,196.528 106.641,197.472 106.641 C 199.006 106.641,199.357 105.607,202.898 90.666 C 206.853 73.975,206.903 75.094,202.148 73.851 C 200.034 73.297,199.837 73.320,199.030 74.212 M182.111 82.458 C 170.551 89.563,169.865 90.182,169.608 93.734 C 169.415 96.410,168.993 95.529,175.876 106.836 C 185.723 123.012,184.335 122.897,206.213 109.340 C 213.769 104.658,214.618 101.732,210.394 94.922 C 207.457 90.187,207.249 89.958,206.465 90.609 C 205.321 91.558,205.739 93.646,207.706 96.802 C 211.212 102.427,211.055 102.656,198.242 110.501 C 185.701 118.180,186.719 118.444,178.820 105.469 C 170.440 91.705,169.972 93.613,183.789 85.221 C 193.747 79.172,194.640 78.504,194.459 77.234 C 194.186 75.313,192.745 75.922,182.111 82.458 M160.770 98.270 C 160.432 98.608,160.156 98.986,160.156 99.111 C 160.156 99.801,154.985 120.943,154.761 121.170 C 154.613 121.320,152.675 121.012,150.454 120.487 C 143.991 118.958,143.739 119.037,142.842 122.884 C 142.148 125.857,142.481 126.794,144.413 127.305 C 158.273 130.969,160.890 131.203,161.442 128.831 C 161.557 128.335,163.096 121.838,164.862 114.393 C 166.930 105.674,167.983 100.501,167.821 99.856 C 167.394 98.153,162.082 96.958,160.770 98.270 M154.522 100.285 C 154.109 100.389,149.451 103.113,144.171 106.339 C 128.357 115.999,128.456 115.626,137.728 130.726 C 147.409 146.493,146.913 146.365,162.157 137.008 C 174.189 129.623,174.691 129.150,174.749 125.155 C 174.784 122.725,170.296 114.648,168.911 114.648 C 167.127 114.648,167.342 116.874,169.484 120.585 C 172.930 126.556,172.822 126.728,161.089 133.927 C 149.323 141.146,149.095 141.223,146.791 138.765 C 144.486 136.305,134.766 119.775,134.766 118.314 C 134.765 116.098,135.703 115.309,145.402 109.374 C 150.401 106.313,154.898 103.557,155.394 103.248 C 157.042 102.222,156.338 99.827,154.522 100.285 M122.332 121.809 C 121.883 122.258,121.083 124.764,120.182 128.547 C 119.394 131.860,118.194 136.899,117.517 139.746 C 116.089 145.748,116.655 145.395,110.840 143.921 C 105.828 142.650,105.281 142.777,104.506 145.387 C 103.046 150.305,103.054 150.313,112.260 152.533 C 119.987 154.397,121.538 154.597,122.172 153.809 C 122.654 153.209,129.297 125.561,129.297 124.154 C 129.297 122.823,128.790 122.457,125.920 121.715 C 122.973 120.952,123.194 120.946,122.332 121.809 M110.693 126.890 C 88.721 140.269,89.394 138.611,99.363 154.792 C 108.916 170.298,108.146 170.126,124.091 160.321 C 134.235 154.084,135.148 153.324,135.912 150.485 C 136.651 147.739,131.936 137.637,130.078 137.985 C 128.422 138.295,128.712 140.765,130.804 144.165 C 134.049 149.437,133.720 150.616,128.017 154.154 C 108.750 166.111,109.983 165.909,105.045 157.912 C 95.396 142.286,95.403 142.299,96.645 139.922 C 97.122 139.009,111.050 130.007,116.272 127.237 C 117.370 126.654,117.578 126.327,117.578 125.186 C 117.578 123.111,116.436 123.394,110.693 126.890 M181.289 131.398 C 181.043 131.694,179.648 136.924,178.188 143.019 C 175.123 155.816,175.962 154.771,169.892 153.348 C 164.262 152.028,163.884 152.253,163.055 157.422 C 162.677 159.779,163.139 160.025,171.860 162.096 C 180.833 164.228,181.373 164.214,181.978 161.834 C 186.533 143.935,188.785 133.195,188.135 132.476 C 186.887 131.097,182.157 130.352,181.289 131.398 M174.638 133.632 C 171.487 134.891,153.862 146.269,153.065 147.558 C 150.752 151.301,150.991 152.000,159.064 165.117 C 167.995 179.626,167.458 179.525,183.433 169.701 C 197.382 161.124,197.779 160.255,192.060 150.856 C 189.792 147.127,189.527 146.884,188.808 147.867 C 187.873 149.145,188.214 150.767,190.058 153.804 C 193.601 159.640,193.511 159.781,181.445 167.176 C 167.844 175.512,169.471 175.873,161.373 162.716 C 154.968 152.312,154.687 151.659,155.746 149.652 C 156.388 148.436,172.637 137.861,175.647 136.700 C 176.144 136.509,176.597 135.888,176.751 135.189 C 177.171 133.276,176.593 132.850,174.638 133.632 M194.336 167.199 C 193.477 167.634,188.646 170.490,183.602 173.546 C 169.455 182.115,169.528 181.775,178.597 196.941 C 188.021 212.700,187.517 212.564,202.800 203.451 C 218.742 193.945,218.587 194.496,209.563 179.381 C 201.545 165.952,199.704 164.479,194.336 167.199 M200.248 170.753 C 201.291 171.733,211.528 188.791,212.159 190.599 C 213.065 193.198,212.107 194.093,201.758 200.320 C 188.194 208.480,189.495 208.788,181.504 195.527 C 173.451 182.165,173.072 183.605,186.815 175.375 C 197.567 168.936,198.114 168.748,200.248 170.753 M367.383 206.732 C 357.482 211.310,319.493 229.323,303.443 237.051 C 195.403 289.072,168.891 304.265,158.723 319.982 C 153.203 328.515,154.118 338.909,160.929 345.063 C 164.150 347.973,165.592 347.705,177.199 342.038 C 187.926 336.800,187.284 337.448,185.096 334.077 C 181.003 327.770,178.332 325.469,174.116 324.616 C 171.165 324.020,171.226 323.962,178.958 320.091 L 185.587 316.772 186.837 317.645 C 189.293 319.361,193.505 323.696,196.340 327.426 L 199.223 331.218 203.616 329.131 C 213.537 324.417,362.191 250.855,362.579 250.468 C 362.730 250.317,362.335 249.139,361.701 247.851 C 357.423 239.153,360.490 225.679,370.613 208.699 C 373.528 203.808,373.605 203.856,367.383 206.732 " stroke="none" fill="#2c2c2c" fill-rule="evenodd"></path></g></svg>