<svg viewBox="0 0 254.2 169.9" xmlns="http://www.w3.org/2000/svg" class="no-fill-stroke">
<style>
  .no-fill-stroke{
    fill:none;
  }
  .stroke-b{
    stroke-linejoin:round;
    stroke-width:3;
    stroke:#263238;
  }
  .stroke-c{
    stroke-linejoin:round;
    stroke-width:2;
    stroke:#263238;
  }
  .stroke-d{
    stroke-linejoin:round;
    stroke-width:8;
    stroke:#263238;
  }
  .stroke-e{
    stroke-linejoin:round;
    stroke:#263238;
  }
</style>
  <clipPath>
    <path d="m0 0l254.2 0 0 169.9 -254.2 0 0-169.9z"/>
  </clipPath>
  <g clip-path="url(#p.0)">
    <path d="m0 0l254.2 0 0 169.9 -254.2 0z" class="no-fill-stroke"/>
    <path d="m141.4 95.6l0 0c0-24.5 22.1-44.4 49.4-44.4q24.7 0 49.4 0 0 22.2 0 44.4l0 0c0 24.5-22.1 44.4-49.4 44.4l0 0c-27.3 0-49.4-19.9-49.4-44.4z" class="no-fill-stroke"/>
    <path d="m141.4 95.6l0 0c0-24.5 22.1-44.4 49.4-44.4q24.7 0 49.4 0 0 22.2 0 44.4l0 0c0 24.5-22.1 44.4-49.4 44.4l0 0c-27.3 0-49.4-19.9-49.4-44.4z" class="stroke-b"/>
    <path d="m110.7 95.6l0 0c0-24.5-22.1-44.4-49.4-44.4q-24.7 0-49.4 0 0 22.2 0 44.4l0 0c0 24.5 22.1 44.4 49.4 44.4l0 0c27.3 0 49.4-19.9 49.4-44.4z" class="no-fill-stroke"/>
    <path d="m110.7 95.6l0 0c0-24.5-22.1-44.4-49.4-44.4q-24.7 0-49.4 0 0 22.2 0 44.4l0 0c0 24.5 22.1 44.4 49.4 44.4l0 0c27.3 0 49.4-19.9 49.4-44.4z" class="stroke-b"/>
    <path d="m21 95.6l0 0c0-20.7 18-37.5 40.3-37.5l0 0c22.2 0 40.3 16.8 40.3 37.5l0 0c0 20.7-18 37.5-40.3 37.5l0 0c-22.2 0-40.3-16.8-40.3-37.5z" class="no-fill-stroke"/>
    <path d="m21 95.6l0 0c0-20.7 18-37.5 40.3-37.5l0 0c22.2 0 40.3 16.8 40.3 37.5l0 0c0 20.7-18 37.5-40.3 37.5l0 0c-22.2 0-40.3-16.8-40.3-37.5z" class="stroke-b"/>
    <path d="m150.6 95.6l0 0c0-20.7 18-37.5 40.3-37.5l0 0c22.2 0 40.3 16.8 40.3 37.5l0 0c0 20.7-18 37.5-40.3 37.5l0 0c-22.2 0-40.3-16.8-40.3-37.5z" class="no-fill-stroke"/>
    <path d="m150.6 95.6l0 0c0-20.7 18-37.5 40.3-37.5l0 0c22.2 0 40.3 16.8 40.3 37.5l0 0c0 20.7-18 37.5-40.3 37.5l0 0c-22.2 0-40.3-16.8-40.3-37.5z" class="stroke-b"/>
    <path d="m43.9 23.5l163.7 0.9" class="no-fill-stroke"/>
    <path d="m43.9 23.5l163.7 0.9" class="stroke-b"/>
    <path d="m113.6 59.6l21.9-0.4" class="no-fill-stroke"/>
    <path d="m113.6 59.6l21.9-0.4" class="stroke-b"/>
    <path d="m44.8 23.1l-33 28.2" class="no-fill-stroke"/>
    <path d="m44.8 23.1l-33 28.2" class="stroke-b"/>
    <path d="m206.1 24.5l34.2 26.8" class="no-fill-stroke"/>
    <path d="m206.1 24.5l34.2 26.8" class="stroke-b"/>
    <path d="m114.1 59.1c0 18.3-1.7 36.5-3.4 36.5" class="no-fill-stroke"/>
    <path d="m114.1 59.1c0 18.3-1.7 36.5-3.4 36.5" class="stroke-b"/>
    <path d="m134 59.1c0 18.3 3.7 36.5 7.4 36.5" class="no-fill-stroke"/>
    <path d="m134 59.1c0 18.3 3.7 36.5 7.4 36.5" class="stroke-b"/>
    <path d="m34.9 78.1l0 34.2 20.9 12 23.9-9.1 0-35.9 -20.5 7.4z" class="no-fill-stroke"/>
    <path d="m34.9 78.1l0 34.2 20.9 12 23.9-9.1 0-35.9 -20.5 7.4z" class="stroke-c"/>
    <path d="m58.7 87.8l-2.3 36.5" class="no-fill-stroke"/>
    <path d="m58.7 87.8l-2.3 36.5" class="stroke-c"/>
    <path d="m190.3 75.1l1.2 43" class="no-fill-stroke"/>
    <path d="m190.3 75.1l1.2 43" class="stroke-d"/>
    <path d="m173.9 87.8l34.2 0" class="no-fill-stroke"/>
    <path d="m173.9 87.8l34.2 0" class="stroke-d"/>
    <path d="m39.7 76.7l18.9 9.2" class="no-fill-stroke"/>
    <path d="m39.7 76.7l18.9 9.2" class="stroke-e"/>
    <path d="m44.4 76.2l14.8 10.6" class="no-fill-stroke"/>
    <path d="m44.4 76.2l14.8 10.6" class="stroke-e"/>
    <path d="m75.8 78.5l-15.7 7.8" class="no-fill-stroke"/>
    <path d="m75.8 78.5l-15.7 7.8" class="stroke-e"/>
  </g>
</svg>